<?xml version="1.0" encoding="UTF-8"?>
<svg version="1.1" xmlns="http://www.w3.org/2000/svg" width="1280" height="370" viewBox="106 270 1100 180">
<path d="M0 0 C422.4 0 844.8 0 1280 0 C1280 237.6 1280 475.2 1280 720 C857.6 720 435.2 720 0 720 C0 482.4 0 244.8 0 0 Z " fill="#FEFEFE" transform="translate(0,0)"/>
<path d="M0 0 C4.01398411 0 5.73364721 0.78575971 8.875 3.3125 C12.32443201 7.85646333 11.52685667 13.59595589 11 19 C10.68215497 20.3371101 10.35162228 21.67137264 10 23 C10.57105469 22.94687149 11.14210938 22.89374298 11.73046875 22.83900452 C17.69740013 22.29142562 23.66709015 21.79743112 29.64111328 21.33374023 C31.867188 21.15397799 34.09222097 20.96077275 36.31591797 20.75366211 C39.52128703 20.45750609 42.72734973 20.21061979 45.9375 19.97265625 C46.92427734 19.87090591 47.91105469 19.76915558 48.92773438 19.6643219 C54.3786297 19.31310412 57.37677718 19.72679968 61.62890625 23.31420898 C64.00768013 25.6310119 64.93363891 26.80091673 66 30 C62.66796816 31.11067728 60.06182565 31.17442008 56.55078125 31.24609375 C55.23787109 31.27775635 53.92496094 31.30941895 52.57226562 31.34204102 C51.87657471 31.35743927 51.18088379 31.37283752 50.46411133 31.38870239 C35.91883683 31.71858288 21.48294583 32.56713943 7 34 C6.74831055 34.77077881 6.49662109 35.54155762 6.23730469 36.33569336 C5.07974229 39.87124541 3.91492908 43.40436869 2.75 46.9375 C2.35425781 48.14986328 1.95851563 49.36222656 1.55078125 50.61132812 C-0.18987365 55.87609582 -1.93034563 61.0357992 -4.28125 66.0625 C-5.72804039 69.18119328 -6.47207522 71.56481532 -6.25 75.0625 C-6.1675 76.361875 -6.085 77.66125 -6 79 C7.5022304 76.89719363 15.62889359 70.4483732 26 62 C29.68857317 64.37907971 32.60455612 66.27375396 35 70 C31.6659268 77.7737458 23.27535762 83.19929297 15.9609375 86.91796875 C10.5803132 88.88423911 5.59771587 89.20555342 0 88 C-4.04796917 85.80593268 -7.90053266 83.19893467 -10 79 C-10.66 79 -11.32 79 -12 79 C-13.60059293 80.62092592 -13.60059293 80.62092592 -15.25 82.6875 C-20.02504821 88.29644436 -24.75746639 93.52860738 -32.375 94.375 C-39.38839247 93.64947664 -43.04928179 89.10521316 -47.38671875 84 C-48.97313002 82.03331097 -50.49859391 80.03211458 -52 78 C-52.45890625 78.40992188 -52.9178125 78.81984375 -53.390625 79.2421875 C-54.00421875 79.78101563 -54.6178125 80.31984375 -55.25 80.875 C-55.85328125 81.40867187 -56.4565625 81.94234375 -57.078125 82.4921875 C-60.3202325 85.03579216 -62.85269221 86.27660232 -67 86.1875 C-67.69996094 86.17460937 -68.39992188 86.16171875 -69.12109375 86.1484375 C-71 86 -71 86 -73.0625 85.3125 C-75.81732079 84.86817407 -77.56002243 86.14593119 -80.01171875 87.28515625 C-84.89617485 89.04125736 -89.64814399 88.35575158 -94.5625 87.0625 C-99.74908505 84.56030674 -104.44864446 79.10271108 -107 74 C-107.74160341 68.00638554 -106.8243244 62.86521159 -104.98046875 57.14453125 C-104.61203857 55.98928955 -104.2436084 54.83404785 -103.86401367 53.64379883 C-103.57888916 52.77134521 -103.29376465 51.8988916 -103 51 C-103.76292358 52.16402344 -103.76292358 52.16402344 -104.54125977 53.3515625 C-106.45800164 56.26965891 -108.38015562 59.18404102 -110.3059082 62.09619141 C-111.13324928 63.34966056 -111.95850166 64.60451124 -112.78149414 65.86083984 C-125.47670892 85.23165389 -125.47670892 85.23165389 -130.55444336 86.77783203 C-133.92336797 87.08388388 -135.04801552 85.9914924 -137.625 83.875 C-142.58950265 79.7186722 -144.9063611 76.38374482 -146 70 C-146.13918537 68.30842606 -146.2435836 66.61369627 -146.31640625 64.91796875 C-146.37924805 63.52094727 -146.37924805 63.52094727 -146.44335938 62.09570312 C-146.48267578 61.13599609 -146.52199219 60.17628906 -146.5625 59.1875 C-146.60568359 58.20845703 -146.64886719 57.22941406 -146.69335938 56.22070312 C-146.7990226 53.81392973 -146.90112327 51.40706017 -147 49 C-147.66 49 -148.32 49 -149 49 C-149.22816406 49.62777344 -149.45632813 50.25554687 -149.69140625 50.90234375 C-151.52948836 55.25338588 -153.7338038 59.38724299 -155.9375 63.5625 C-156.38029297 64.41263672 -156.82308594 65.26277344 -157.27929688 66.13867188 C-157.71177734 66.96044922 -158.14425781 67.78222656 -158.58984375 68.62890625 C-159.17560181 69.7437439 -159.17560181 69.7437439 -159.77319336 70.88110352 C-161.03496549 73.06039114 -162.45068827 75.01731828 -164 77 C-169.00743139 76.84825965 -171.27547597 74.09792829 -174.546875 70.69140625 C-177.70446214 67.01604273 -177.33332034 63.00367781 -177.5625 58.375 C-177.60568359 57.57320313 -177.64886719 56.77140625 -177.69335938 55.9453125 C-177.79951457 53.9637489 -177.90026855 51.98189729 -178 50 C-188.58606084 61.22570197 -198.12067659 73.73408459 -206 87 C-209.84230357 85.16130108 -212.45272716 83.52123011 -215 80 C-213.86824872 72.70165524 -211.35203616 65.87407652 -208.875 58.9375 C-208.50246094 57.88111328 -208.12992188 56.82472656 -207.74609375 55.73632812 C-206.83534623 53.15587683 -205.91990295 50.57719856 -205 48 C-205.62366455 48.12552246 -206.2473291 48.25104492 -206.88989258 48.38037109 C-214.78568565 49.89981182 -222.69155571 50.81255569 -230.6875 51.625 C-231.97333984 51.7590625 -233.25917969 51.893125 -234.58398438 52.03125 C-237.72228837 52.35791361 -240.86093455 52.68075132 -244 53 C-242.7934375 54.423125 -242.7934375 54.423125 -241.5625 55.875 C-238.3468671 59.66779778 -237.62113454 61.91947634 -238 67 C-242.12480425 76.26321228 -249.90532726 83.90532726 -257 91 C-255.85144531 91.32871094 -254.70289063 91.65742188 -253.51953125 91.99609375 C-237.5553077 96.78984418 -225.15192021 103.75004435 -216.4765625 118.609375 C-209.22497696 132.44187921 -208.92846135 148.16772397 -213.4921875 163.0078125 C-220.1279125 181.30972069 -230.50418604 197.29373661 -241.25790405 213.36769104 C-242.30804988 214.93741259 -243.35786978 216.50735224 -244.40737915 218.07749939 C-247.05362686 222.03541861 -249.70567283 225.98913144 -252.37158203 229.93383789 C-263.99037647 246.93630852 -263.99037647 246.93630852 -272.4375 265.625 C-272.67919922 266.29144531 -272.92089844 266.95789063 -273.16992188 267.64453125 C-274.27493865 270.7287285 -275.29319135 273.79905046 -276 277 C-280.47422406 275.81564657 -282.87498396 273.39010308 -285.9609375 270.14453125 C-287.58286213 266.79702515 -286.84324495 264.57918816 -286 261 C-284.94748706 258.0546264 -283.66875378 255.25447214 -282.3125 252.4375 C-281.92022217 251.61886475 -281.52794434 250.80022949 -281.1237793 249.95678711 C-273.67713719 234.89164639 -263.88829122 221.15500757 -254.1940918 207.4777832 C-239.12659549 186.08680917 -220.57847534 159.66894497 -220.6875 132.5 C-220.66333008 131.29537109 -220.66333008 131.29537109 -220.63867188 130.06640625 C-220.63124369 120.90001986 -223.70123692 113.67181055 -230 107 C-235.79184905 102.11515192 -242.82881782 100.05401233 -250 98 C-250.98355469 97.62101562 -251.96710938 97.24203125 -252.98046875 96.8515625 C-256.3849222 95.79919512 -258.47040224 95.39160292 -262 96 C-266.5671219 98.98304819 -270.04570958 103.30544615 -273.578125 107.40429688 C-275.32268978 109.36213949 -277.22140427 111.02920349 -279.25 112.6875 C-291.42664963 123.12827505 -305.84420372 139.94378274 -307.31640625 156.57421875 C-307.40249795 157.94506353 -307.48439477 159.316177 -307.5625 160.6875 C-307.60568359 161.38939453 -307.64886719 162.09128906 -307.69335938 162.81445312 C-307.7991736 164.54275206 -307.90006581 166.2713511 -308 168 C-298.13219759 168.26568811 -298.13219759 168.26568811 -288.375 167 C-273.83912015 164.1866039 -273.83912015 164.1866039 -267.83203125 168.0234375 C-259.50891945 175.19444974 -259.50891945 175.19444974 -259 182 C-290.58750273 188.14201442 -290.58750273 188.14201442 -302 181 C-303.051875 180.360625 -304.10375 179.72125 -305.1875 179.0625 C-306.115625 178.381875 -307.04375 177.70125 -308 177 C-308.94875 176.319375 -309.8975 175.63875 -310.875 174.9375 C-317.14743631 169.61090726 -322.81542157 161.79666658 -324.4765625 153.66796875 C-325.12146295 142.89134273 -319.68127606 133.21675713 -312.9140625 125.16796875 C-309.44072705 121.2762508 -305.75313523 117.61999879 -302 114 C-301.33307129 113.3507959 -300.66614258 112.7015918 -299.97900391 112.03271484 C-292.9078902 105.18020869 -285.69182901 98.6488395 -277.98828125 92.51171875 C-271.03914137 86.67080771 -264.52932322 80.30284485 -258 74 C-257.34370605 73.37287109 -256.68741211 72.74574219 -256.01123047 72.09960938 C-255.39135254 71.49697266 -254.77147461 70.89433594 -254.1328125 70.2734375 C-253.58512207 69.74411621 -253.03743164 69.21479492 -252.47314453 68.66943359 C-249.25148172 65.0185005 -247.52260979 60.56782937 -246 56 C-250.95 56 -255.9 56 -261 56 C-260.67 57.32 -260.34 58.64 -260 60 C-262.46800047 58.84826645 -264.04783565 57.95216435 -266 56 C-276.41158583 54.40245508 -288.14019602 57.19627467 -298.5 58.5 C-301.39085216 58.85846952 -304.28192267 59.21506754 -307.17321777 59.56994629 C-308.96201512 59.79006048 -310.75052306 60.01254267 -312.53869629 60.2376709 C-313.74640686 60.38782654 -313.74640686 60.38782654 -314.97851562 60.54101562 C-315.68480103 60.62984009 -316.39108643 60.71866455 -317.11877441 60.81018066 C-319 61 -319 61 -322 61 C-322.12503906 62.2890625 -322.25007813 63.578125 -322.37890625 64.90625 C-322.92816168 69.8485836 -323.89584784 74.64200377 -324.9375 79.5 C-328.77597056 98.29139596 -329.5197462 116.8698903 -330 136 C-333.53148015 135.23256715 -335.35743211 134.12153989 -338.0625 131.6875 C-338.73410156 131.09324219 -339.40570313 130.49898437 -340.09765625 129.88671875 C-344.80451219 125.21852282 -344.80451219 125.21852282 -345.38401794 121.60632324 C-345.29206851 114.60245645 -344.1925866 108.2923383 -342.41015625 101.53125 C-342.14617538 100.48851929 -341.88219452 99.44578857 -341.61021423 98.37145996 C-340.77317187 95.07771473 -339.91805003 91.78898047 -339.0625 88.5 C-338.49166383 86.26332031 -337.92199159 84.02634323 -337.35351562 81.7890625 C-336.31433091 77.71497584 -335.27146215 73.64193214 -334.21508789 69.57226562 C-334.00412979 68.75939087 -333.79317169 67.94651611 -333.57582092 67.10900879 C-333.10641778 65.38976708 -332.56357177 63.6907153 -332 62 C-332.88631104 62.12060791 -332.88631104 62.12060791 -333.79052734 62.24365234 C-336.65106855 62.62831365 -339.51279344 63.00292863 -342.375 63.375 C-343.9686438 63.58406982 -343.9686438 63.58406982 -345.59448242 63.79736328 C-351.48628625 64.53915724 -357.34818405 65.12489217 -363.27734375 65.46875 C-364.45312988 65.53916504 -365.62891602 65.60958008 -366.84033203 65.68212891 C-369.1280163 65.8092046 -371.4169209 65.91615163 -373.70654297 66.00146484 C-374.7482666 66.06027832 -375.78999023 66.1190918 -376.86328125 66.1796875 C-378.24447144 66.23745361 -378.24447144 66.23745361 -379.65356445 66.29638672 C-382.26321072 66.81774612 -382.26321072 66.81774612 -383.82104492 69.55126953 C-384.2101001 70.35935059 -384.59915527 71.16743164 -385 72 C-387.43270079 71.05830937 -388.72437686 70.47018066 -390.0625 68.1875 C-389.98137729 65.34820517 -388.88739559 64.07133682 -386.86483765 62.15005493 C-382.70060504 59.58195135 -377.53611634 59.63657781 -372.76953125 59.19921875 C-371.58276291 59.07311722 -370.39599457 58.94701569 -369.17326355 58.8170929 C-365.38814478 58.41989071 -361.60075311 58.05346952 -357.8125 57.6875 C-355.25044449 57.42321874 -352.68859158 57.1569654 -350.12695312 56.88867188 C-331.90798453 55 -331.90798453 55 -329 55 C-328.89300781 53.88882813 -328.78601563 52.77765625 -328.67578125 51.6328125 C-328.03818666 46.55215511 -326.6478627 41.77203805 -325.1875 36.875 C-324.64020195 35.01444731 -324.09332782 33.15376986 -323.546875 31.29296875 C-323.14758789 29.94017822 -323.14758789 29.94017822 -322.74023438 28.56005859 C-322.09074094 26.31382241 -321.47787619 24.06391438 -320.890625 21.80078125 C-318.8449428 14.04563356 -316.55033431 7.90536774 -311.125 1.9375 C-307.62534255 0.39353348 -305.64600939 0.90619718 -302 2 C-295.20612799 6.44164166 -289.57525379 13.27423863 -287 21 C-286.56335317 27.33137897 -287.7092624 32.10953189 -290 38 C-291.32 37.34 -292.64 36.68 -294 36 C-293.125 28.375 -293.125 28.375 -292 25 C-291.41070215 18.98916192 -292.85406376 14.99446082 -296 10 C-297.93358244 7.65952546 -297.93358244 7.65952546 -301.375 7.5625 C-305.01467888 7.66149612 -305.01467888 7.66149612 -307.1875 9.875 C-312.213133 18.53988448 -314.24108107 27.75273846 -316.1875 37.5 C-316.69958612 40.01087389 -317.21379614 42.52131587 -317.73046875 45.03125 C-317.95114014 46.13017578 -318.17181152 47.22910156 -318.39916992 48.36132812 C-319 51 -319 51 -320 53 C-317.39525251 52.71295866 -314.79129858 52.42043523 -312.1875 52.125 C-311.46884766 52.04636719 -310.75019531 51.96773438 -310.00976562 51.88671875 C-305.98829737 51.42611005 -302.030012 50.838397 -298.0546875 50.07421875 C-290.89267968 48.73550244 -283.67338718 47.89112552 -276.44528198 46.9982605 C-262.58998645 45.28133352 -248.75070924 43.46643177 -234.9375 41.4375 C-234.23716644 41.33469727 -233.53683289 41.23189453 -232.8152771 41.12597656 C-223.04371416 39.68261676 -213.30854262 38.08088315 -203.61694336 36.16772461 C-192.01250516 33.91538144 -192.01250516 33.91538144 -187 37 C-186.4225 36.319375 -185.845 35.63875 -185.25 34.9375 C-184.13625 33.9784375 -184.13625 33.9784375 -183 33 C-177.88339671 33.47670217 -174.46437488 37.54298048 -171 41 C-168.35572425 44.47061193 -167.62710494 46.64955762 -168 51 C-167.34 51 -166.68 51 -166 51 C-165.79375 50.195625 -165.5875 49.39125 -165.375 48.5625 C-163.5113875 43.73404944 -160.7021406 38.7021406 -157 35 C-152.30532694 35.18410483 -149.01747904 35.96569678 -145.54296875 39.25390625 C-137.7494461 48.07341163 -135.4938677 56.66083278 -134 68 C-131.47314774 64.25402445 -128.95467866 60.50248132 -126.4375 56.75 C-125.73302734 55.70585937 -125.02855469 54.66171875 -124.30273438 53.5859375 C-122.17416031 50.40779005 -120.07901539 47.21076691 -118 44 C-117.28730957 42.91138672 -116.57461914 41.82277344 -115.84033203 40.70117188 C-115.18274902 39.64994141 -114.52516602 38.59871094 -113.84765625 37.515625 C-113.25090088 36.57493164 -112.65414551 35.63423828 -112.03930664 34.66503906 C-110.68649467 32.01977335 -110.68649467 32.01977335 -111.84545898 29.33105469 C-112.22645752 28.56180664 -112.60745605 27.79255859 -113 27 C-112.625 24.1875 -112.625 24.1875 -112 22 C-107.44769158 22 -105.01584013 23.47559755 -101.75 26.4375 C-98.06507553 30.33139939 -97.13945934 33.34395992 -96.49609375 38.5703125 C-95.94228204 41.28268165 -95.02173304 42.67631489 -93.375 44.875 C-89.91512739 50.04421444 -90.11537572 54.98455492 -91 61 C-92.32637962 66.44194608 -94.1260275 71.72610598 -96 77 C-94.603522 76.54363464 -93.2078492 76.08480512 -91.8125 75.625 C-91.03519531 75.36976563 -90.25789063 75.11453125 -89.45703125 74.8515625 C-86.93632321 73.97793078 -84.46935722 73.00879602 -82 72 C-81.85304688 70.47632813 -81.85304688 70.47632813 -81.703125 68.921875 C-80.11139948 53.7328481 -76.68042776 39.21720349 -64.5625 28.8125 C-60.11130343 25.65040635 -57.37368816 25.10438531 -52 26 C-45.33078154 28.60262184 -40.31855464 35.88687304 -37 42 C-36.34 42.99 -35.68 43.98 -35 45 C-34.59648922 50.05940441 -35.89096474 54.04729454 -38.5 58.3125 C-42.75304991 65.99740574 -41.93642923 75.4366439 -42 84 C-31.78984785 81.27093129 -26.33179714 76.33085599 -19.78125 68.26953125 C-17.48064242 64.04670549 -17.45515392 60.78754908 -17.4375 56.0625 C-16.90925086 38.69360156 -13.01117592 13.01117592 0 0 Z " fill="#050505" transform="translate(503,235)"/>
<path d="M0 0 C7.50317854 5.43022831 15.52591641 13.0956526 17.53125 22.48828125 C17.81820536 29.60238297 14.71999888 34.82322704 10 40 C9.34 40 8.68 40 8 40 C8 40.66 8 41.32 8 42 C8.680625 42.185625 9.36125 42.37125 10.0625 42.5625 C16.82896811 45.87375035 21.0107803 51.64850382 24.125 58.37890625 C26.32440898 64.96731439 25.30346079 70.5984142 23 77 C34.99455441 66.13836452 46.20395216 53.3501023 52 38 C51.360625 37.401875 50.72125 36.80375 50.0625 36.1875 C46.68790969 32.60838906 46.59480751 29.00099956 46.65625 24.29296875 C47.26377946 20.24047112 48.92116759 18.67724557 52 16 C55.50490814 14.75867837 57.15640134 14.67862908 60.625 16 C64.76632866 19.48743467 66.77130646 22.60189413 67.28125 27.94921875 C67.32880362 32.78185506 67.06378546 37.27783042 66 42 C66.74765625 42.35191406 67.4953125 42.70382812 68.265625 43.06640625 C77.33210728 47.61151451 77.33210728 47.61151451 79.8125 51.25 C82.36504985 59.31068373 78.64882797 66.37704617 75.12109375 73.65234375 C73.90999959 76.06425068 73.90999959 76.06425068 73 79 C77.29 77.68 81.58 76.36 86 75 C85.67 74.01 85.34 73.02 85 72 C83.97943826 59.49811872 90.502789 47.54378167 98.1640625 38.109375 C107.53529132 27.34243126 107.53529132 27.34243126 112.41796875 26.6640625 C116.6225952 27.21110921 118.56647141 29.59278345 121.40625 32.5703125 C123.68341568 36.04187391 123.52012919 38.67902248 122.98828125 42.703125 C122.77165324 45.10851326 122.77165324 45.10851326 124.49609375 46.984375 C126.44388382 49.59491961 126.19498177 50.82708652 125.75 54 C125.58757812 55.2684375 125.58757812 55.2684375 125.421875 56.5625 C125 59 125 59 124.45703125 61.046875 C123.95779098 63.18038045 123.90104305 65.06258328 123.9375 67.25 C123.9684375 69.10625 123.9684375 69.10625 124 71 C129.95857682 65.00418207 134.00506615 58.21237404 137.99169922 50.84326172 C139.00212325 48.99611852 140.04521588 47.1711332 141.09765625 45.34765625 C141.74605469 44.20167969 142.39445313 43.05570312 143.0625 41.875 C143.65160156 40.84117187 144.24070312 39.80734375 144.84765625 38.7421875 C146.18445179 36.15540671 146.18445179 36.15540671 145.8125 33.8046875 C144.96271667 31.74147458 144.96271667 31.74147458 142.9375 29.25 C140.35881649 24.92446636 140.36782412 22.97838503 141 18 C143.67902322 13.2000834 148.10220263 10.30539044 153 8 C156.375 7.125 156.375 7.125 160 8 C164.94661294 11.34926918 169.05063347 14.8639253 171.5 20.375 C170.85548546 25.04773044 168.96220971 28.34056442 166.54296875 32.3515625 C165.08757778 34.84967663 164.00162524 37.29316887 163 40 C163.54269531 40.44730469 164.08539062 40.89460938 164.64453125 41.35546875 C165.35996094 41.96003906 166.07539062 42.56460938 166.8125 43.1875 C167.87404297 44.07501953 167.87404297 44.07501953 168.95703125 44.98046875 C172.07802477 48.06565738 173.79549037 50.59422658 174.43359375 54.98046875 C174.44275346 62.5005896 173.40292485 68.27010845 170 75 C177.83243513 71.84148003 177.83243513 71.84148003 185.4375 68.1875 C188.36950015 66.82876822 189.82179352 66.3643587 193 67 C197.83463135 70.32380906 200.76203306 74.14304959 204 79 C202.95810046 82.42014849 201.84975502 83.08497462 198.6640625 84.88671875 C197.32358878 85.49999872 195.97691754 86.09987675 194.625 86.6875 C193.95210937 86.99494141 193.27921875 87.30238281 192.5859375 87.61914062 C185.38031304 90.8602532 178.90816972 92.03947592 171 91 C167.73879152 89.53692359 165.50964307 87.51482828 163 85 C162.25234375 84.32324219 161.5046875 83.64648438 160.734375 82.94921875 C157.18719967 79.45785562 154.47718979 76.46976024 154.0625 71.375 C154.48622658 65.8665545 156.97602549 61.09371828 159.50805664 56.26513672 C161.37521139 52.67507501 162.43406149 50.06932644 162 46 C161.01 45.67 160.02 45.34 159 45 C158.76410156 45.81210937 158.52820313 46.62421875 158.28515625 47.4609375 C152.86221906 62.39461864 142.63993747 79.52923268 129.11328125 88.2109375 C126.29782334 89.26218057 124.83555361 88.94223544 122 88 C119.90234375 86.51171875 119.90234375 86.51171875 117.9375 84.6875 C117.25558594 84.06101562 116.57367187 83.43453125 115.87109375 82.7890625 C113.88295532 80.88808672 111.90515844 78.98454004 110 77 C109.57589844 77.42152344 109.15179687 77.84304688 108.71484375 78.27734375 C104.61087601 82.11072021 101.83647776 83.88776004 96 84 C95.01 83.67 94.02 83.34 93 83 C91.845 83.474375 90.69 83.94875 89.5 84.4375 C84.37731945 86.45638331 79.43389182 87.02541495 74 86 C70.51785176 83.99883572 67.80582623 81.61165246 66 78 C65.40027572 71.88888553 66.93469881 68.39929654 69.9375 63.3125 C73.0780224 57.9103056 73.0780224 57.9103056 75 52 C74.113125 51.896875 73.22625 51.79375 72.3125 51.6875 C68.922434 50.9839014 66.90591238 49.80637797 64 48 C63.01 48 62.02 48 61 48 C59.60545628 49.52342609 59.60545628 49.52342609 58.3984375 51.5859375 C57.66983521 52.72820801 57.66983521 52.72820801 56.92651367 53.89355469 C56.41451416 54.71243164 55.90251465 55.53130859 55.375 56.375 C49.35367924 65.701983 43.09630253 73.66526637 34.41796875 80.6953125 C32.7801363 82.07318509 32.7801363 82.07318509 31.4375 84.6875 C29.45205316 87.88147969 27.52500899 88.80149694 24 90 C21.25 89.4375 21.25 89.4375 19 88 C17.859375 85.91015625 17.859375 85.91015625 17 84 C16.29617188 84.39832031 15.59234375 84.79664063 14.8671875 85.20703125 C13.87976563 85.73683594 12.89234375 86.26664062 11.875 86.8125 C10.92367187 87.33457031 9.97234375 87.85664063 8.9921875 88.39453125 C-1.32861269 93.04401473 -12.86400752 93.54511812 -24 93.5625 C-25.90458984 93.61760742 -25.90458984 93.61760742 -27.84765625 93.67382812 C-38.09994402 93.72234053 -38.09994402 93.72234053 -41.875 90.08984375 C-44 87 -44 87 -44 85 C-43.30140869 84.99589111 -42.60281738 84.99178223 -41.88305664 84.98754883 C-12.92961399 84.72439681 -12.92961399 84.72439681 11.5 70.5 C14.81611749 64.97313751 15.40702781 60.30893108 15 54 C14.34317691 51.59313185 14.34317691 51.59313185 13 50 C3.61087644 46.87029215 -4.30493068 50.23935403 -13 54 C-17.30070542 55.81711092 -20.27251692 56.7464447 -25 56 C-27.53065848 54.01356915 -29.5473121 51.88194534 -31 49 C-30.8828125 46.8984375 -30.8828125 46.8984375 -30 45 C-28.3984375 43.8046875 -28.3984375 43.8046875 -26.375 42.875 C-25.72273437 42.56304687 -25.07046875 42.25109375 -24.3984375 41.9296875 C-22 41 -22 41 -18.6015625 40.140625 C-9.65025867 37.30572184 -1.35088837 29.65402156 4 22 C5.24962861 18.25111416 5.46677659 14.92256117 5 11 C3.18836733 8.32568511 2.12238923 8.04079641 -1 7 C-9.25481054 6.57439226 -17.0075395 6.75650232 -25 9 C-25.09796875 9.93070313 -25.1959375 10.86140625 -25.296875 11.8203125 C-26.04004016 16.99908232 -27.68299482 21.89679901 -29.25 26.875 C-29.88996428 28.94120771 -30.52928305 31.00761546 -31.16796875 33.07421875 C-31.48169434 34.08532715 -31.79541992 35.09643555 -32.11865234 36.13818359 C-33.30121066 39.97805854 -34.43847233 43.83015806 -35.5625 47.6875 C-37.41631622 54.0272272 -39.29325714 60.35972673 -41.1875 66.6875 C-41.43765869 67.52563232 -41.68781738 68.36376465 -41.94555664 69.22729492 C-43.22951317 73.50960888 -44.55731773 77.76767618 -46 82 C-49.82622743 80.4411666 -52.25147379 78.04566418 -55 75 C-56.30463791 71.08608628 -55.38910086 70.09194045 -53.640625 66.41796875 C-53.10655029 65.27158936 -52.57247559 64.12520996 -52.0222168 62.9440918 C-51.73309418 62.33205902 -51.44397156 61.72002625 -51.14608765 61.08944702 C-45.75755348 49.65227729 -40.96835597 38.08279243 -36.6875 26.1875 C-36.32754944 25.18787735 -36.32754944 25.18787735 -35.96032715 24.1680603 C-34.62545713 20.45052218 -33.30583184 16.72783048 -32 13 C-33.75692989 14.07630379 -35.5084993 15.16136057 -37.2578125 16.25 C-38.23379395 16.85328125 -39.20977539 17.4565625 -40.21533203 18.078125 C-42.80604634 19.86614035 -44.78135162 21.66581772 -46.875 24 C-49.67779628 26.97002756 -49.67779628 26.97002756 -52.6875 27.25 C-55.62050441 25.66459221 -57.11693504 23.71998272 -59 21 C-55.83062248 11.45902415 -45.67916203 7.06256215 -37.3125 2.625 C-36.50498291 2.19614502 -35.69746582 1.76729004 -34.86547852 1.32543945 C-23.34632785 -4.60508353 -11.66199317 -6.80589507 0 0 Z " fill="#050505" transform="translate(635,235)"/>
<path d="M0 0 C3.74993769 0.00928309 7.49985839 0.01366964 11.24980545 0.0173378 C72.56341445 0.10062737 133.7039771 2.21300731 194.66041946 9.12698746 C197.53652838 9.45073826 200.41353773 9.76486544 203.2910347 10.0760231 C226.03693609 12.53877826 248.67628074 15.4262681 271.2610054 19.08658218 C273.64514149 19.4699651 276.03041285 19.8455549 278.4160347 20.21957779 C296.7998274 23.10600506 315.16781798 26.13637719 333.38438797 29.95477676 C334.94277513 30.2787899 336.50302635 30.59398219 338.06511307 30.89966202 C351.44966083 33.54174927 351.44966083 33.54174927 355.48439407 38.13412857 C357.50001907 41.44662857 357.50001907 41.44662857 357.50001907 42.44662857 C353.02516843 42.55237753 349.09809994 42.30013735 344.75001907 41.25912857 C288.29403273 28.67451242 230.31340729 22.08451384 172.75401688 17.09399796 C168.7902835 16.74855477 164.83062838 16.38384524 160.87355423 15.96860123 C143.4557799 14.15963721 125.98426752 13.21504172 108.50001907 12.32162857 C107.63627796 12.27719368 106.77253685 12.23275879 105.88262177 12.18697739 C74.74434489 10.59911323 43.6403142 10.05814047 12.46352005 10.07056808 C9.23585361 10.07161292 6.00820193 10.06930679 2.78053665 10.06668472 C-23.37482367 10.05887986 -49.40327597 10.67478834 -75.49998093 12.44662857 C-76.26603338 12.49811428 -77.03208584 12.54959999 -77.82135201 12.60264587 C-90.59392265 13.46221785 -90.59392265 13.46221785 -103.35544968 14.47006607 C-104.19972015 14.54147812 -105.04399063 14.61289017 -105.91384506 14.68646622 C-155.07494712 18.92238871 -204.01423833 24.81097171 -252.81687546 32.04880142 C-254.60160145 32.31342481 -256.38643199 32.57734405 -258.17136765 32.84054947 C-299.20971806 38.89357493 -340.00810089 46.27159431 -380.68748093 54.38412857 C-382.08498581 54.66217331 -382.08498581 54.66217331 -383.51072311 54.94583511 C-392.43029453 56.72628138 -401.30942965 58.51425885 -410.08323288 60.93320084 C-412.62202443 61.47255619 -414.91225468 61.53895434 -417.49998093 61.44662857 C-418.15998093 60.12662857 -418.81998093 58.80662857 -419.49998093 57.44662857 C-414.12501022 55.29543514 -408.95303917 53.7868557 -403.24998093 52.75912857 C-394.58010779 51.11273009 -385.97670468 49.22142116 -377.37229538 47.26797867 C-343.30349252 39.55392083 -308.96389191 33.17670707 -274.53416061 27.30698013 C-270.14946709 26.55908783 -265.76653968 25.80129229 -261.38399887 25.04089737 C-257.73844005 24.40872795 -254.09237065 23.77954011 -250.44617844 23.15103531 C-248.73557094 22.85589452 -247.02509349 22.55999864 -245.31476974 22.26321793 C-233.67066998 20.24560414 -222.0077709 18.45927853 -210.30231857 16.83584976 C-207.41041065 16.43418801 -204.51924954 16.02743915 -201.62815475 15.61996841 C-176.45033583 12.08176351 -151.28791097 8.7849773 -125.96220016 6.50365067 C-125.11615219 6.42682556 -124.27010422 6.35000046 -123.39841843 6.27084732 C-122.41948797 6.18368076 -122.41948797 6.18368076 -121.42078114 6.09475327 C-117.05478293 5.70007308 -112.69972877 5.25342113 -108.34567165 4.74423504 C-72.33225602 0.55108079 -36.21973061 -0.09533436 0 0 Z " fill="#870808" transform="translate(786.4999809265137,343.55337142944336)"/>
<path d="M0 0 C3.18744903 0.59301377 4.7815277 1.74380128 6.74609375 4.32421875 C9.53429111 10.76830974 7.84219889 18.80765011 6.6875 25.5 C7.6347998 25.29842285 8.58209961 25.0968457 9.55810547 24.88916016 C13.11770893 24.13187661 16.67748259 23.37539568 20.23730469 22.61914062 C21.76957683 22.29350866 23.3018045 21.96766736 24.83398438 21.64160156 C29.78388451 20.58829383 34.73504895 19.54125283 39.6875 18.5 C40.739375 18.27795898 41.79125 18.05591797 42.875 17.82714844 C43.75929688 17.64442383 44.64359375 17.46169922 45.5546875 17.2734375 C46.29058105 17.12052246 47.02647461 16.96760742 47.78466797 16.81005859 C50.79057847 16.32025793 52.81947467 16.4570817 55.6875 17.5 C57.98631732 19.26913591 60.01782515 21.11982522 61.6875 23.5 C61.6875 24.49 61.6875 25.48 61.6875 26.5 C60.56480713 26.66081055 59.44211426 26.82162109 58.28540039 26.98730469 C54.03297111 27.59848931 49.78206137 28.21975848 45.53149414 28.84375 C43.70798739 29.11008154 41.88410337 29.37384546 40.05981445 29.63476562 C28.09759624 31.34788969 16.39842985 33.50866814 4.6875 36.5 C4.46231689 37.59006348 4.23713379 38.68012695 4.00512695 39.80322266 C1.61727448 51.14712614 -2.17600979 61.65806317 -6.52807617 72.38793945 C-8.22757794 76.96384665 -8.59551801 81.40259102 -8.875 86.25 C-8.91818359 86.94738281 -8.96136719 87.64476562 -9.00585938 88.36328125 C-9.11139596 90.07531922 -9.2123991 91.78763561 -9.3125 93.5 C3.93905389 91.07170478 12.51248029 84.9942351 22.1796875 75.83203125 C28.97019352 69.51749528 28.97019352 69.51749528 32.25 69.4375 C35.50553787 70.85658061 36.86056952 72.47853806 38.6875 75.5 C38.25952747 81.55455262 31.91823812 85.72082732 27.6875 89.5 C19.03351308 97.00154477 9.801051 104.53738151 -2.28515625 103.87890625 C-8.69457503 102.68099947 -12.46162753 97.29743825 -16.3125 92.5 C-17.09753906 93.39203125 -17.88257813 94.2840625 -18.69140625 95.203125 C-19.7521117 96.38585851 -20.81333754 97.56812546 -21.875 98.75 C-22.38869141 99.33652344 -22.90238281 99.92304688 -23.43164062 100.52734375 C-27.51079603 105.03721743 -31.62878757 108.69842418 -37.75390625 110.03125 C-43.97081179 109.93965655 -47.39675685 108.38715743 -51.90625 103.921875 C-58.84178672 96.37437915 -59.78331424 89.53623579 -60 79.5625 C-60.03416016 78.49708984 -60.06832031 77.43167969 -60.10351562 76.33398438 C-60.18548226 73.72276154 -60.25479887 71.11185279 -60.3125 68.5 C-62.55639385 73.24968969 -64.79836137 78.00028202 -67.03857422 82.75170898 C-67.80041913 84.36686552 -68.56278331 85.98177723 -69.32568359 87.59643555 C-70.42422992 89.9217158 -71.52088566 92.2478796 -72.6171875 94.57421875 C-72.9568454 95.29212082 -73.2965033 96.01002289 -73.64645386 96.74967957 C-77.38913996 104.27796905 -77.38913996 104.27796905 -78.3125 112.5 C-80.0625 113.25 -80.0625 113.25 -82.3125 113.5 C-84.5625 112.0625 -84.5625 112.0625 -86.3125 109.5 C-86.78167006 103.40283089 -85.76638564 98.91468126 -83.57421875 93.265625 C-83.29278519 92.50634705 -83.01135162 91.74706909 -82.72138977 90.96478271 C-81.82643386 88.55508986 -80.91453684 86.15232212 -80 83.75 C-73.63661408 68.96438372 -73.63661408 68.96438372 -70.3125 53.5 C-71.80588517 51.1698019 -73.29041709 49.74289525 -75.4453125 48.015625 C-78.08164246 45.87567516 -79.20732723 43.67737172 -80.3125 40.5 C-80.3125 36.99881954 -79.57132638 35.80735633 -77.3125 33.125 C-73.74452816 31.19234859 -71.75975866 30.93241182 -67.796875 31.55078125 C-61.74889341 33.86156667 -56.84454475 39.20193287 -53.3125 44.5 C-52.99463032 48.5528384 -53.34597098 51.79438185 -54.5625 55.625 C-55.76889945 59.478392 -55.76889945 59.478392 -53.5625 62.25 C-52.82 62.9925 -52.0775 63.735 -51.3125 64.5 C-48.94653349 68.07710385 -49.08144493 71.23550199 -49.1171875 75.453125 C-49.1200174 76.11334656 -49.12284729 76.77356812 -49.12576294 77.45379639 C-49.13691585 79.55271897 -49.16201054 81.65120742 -49.1875 83.75 C-49.19753616 85.17707715 -49.2066609 86.60416102 -49.21484375 88.03125 C-49.23683889 91.52097328 -49.27133464 95.01044423 -49.3125 98.5 C-37.86434587 94.39774477 -31.97857243 88.74702042 -25.3125 78.5 C-24.72984375 77.6440625 -24.1471875 76.788125 -23.546875 75.90625 C-18.71827308 68.12423137 -18.0444797 60.39087532 -17.3125 51.5 C-17.14492187 50.40171875 -16.97734375 49.3034375 -16.8046875 48.171875 C-16.41592248 45.52827285 -16.09022354 43.16248538 -16.3125 40.5 C-18.53415353 37.7327398 -18.53415353 37.7327398 -21.3125 36.5 C-20.9825 35.18 -20.6525 33.86 -20.3125 32.5 C-18.0025 32.17 -15.6925 31.84 -13.3125 31.5 C-13.08175781 30.41203125 -12.85101562 29.3240625 -12.61328125 28.203125 C-6.75024685 1.45951283 -6.75024685 1.45951283 0 0 Z " fill="#050505" transform="translate(1141.3125,208.5)"/>
<path d="M0 0 C5.4413836 1.23725359 8.90256804 4.29343361 12.3046875 8.68359375 C18.29957836 18.85740488 16.13418437 33.51978171 16 45 C16.64026123 44.72212646 17.28052246 44.44425293 17.94018555 44.15795898 C20.85026403 42.90408271 23.76858736 41.67066272 26.6875 40.4375 C28.19860352 39.78104492 28.19860352 39.78104492 29.74023438 39.11132812 C30.71669922 38.70205078 31.69316406 38.29277344 32.69921875 37.87109375 C33.59471436 37.48880615 34.49020996 37.10651855 35.4128418 36.71264648 C38.38227458 35.89470043 40.07746641 36.10635334 43 37 C44.875 38.3125 44.875 38.3125 46 40 C45.5703125 42.10546875 45.5703125 42.10546875 45 44 C41.64808052 44.98697159 38.29310737 45.96314756 34.9375 46.9375 C33.52307617 47.35418945 33.52307617 47.35418945 32.08007812 47.77929688 C27.05044698 49.23385919 22.20709555 50.42945832 17 51 C17.97676211 68.87752604 19.48448438 86.60117515 21.67871094 104.37036133 C21.8091832 105.44488808 21.8091832 105.44488808 21.94229126 106.54112244 C22.17854744 108.47962848 22.42130154 110.41733951 22.66455078 112.35498047 C23.02533853 116.27533066 23.05591685 120.06573355 23 124 C18.06989713 123.85060294 15.80615557 121.21427432 12.55078125 117.88671875 C9.1940226 113.80280332 8.69225604 110.43718238 8.40234375 105.1796875 C8.36315323 104.52098663 8.32396271 103.86228577 8.28358459 103.18362427 C8.15998952 101.08112625 8.04825875 98.97820972 7.9375 96.875 C7.78324843 94.12220273 7.62421237 91.36969257 7.46484375 88.6171875 C7.38983643 87.30314941 7.3148291 85.98911133 7.23754883 84.63525391 C7.03807971 81.58274088 6.77476504 78.55614278 6.4453125 75.515625 C5.98879617 71.27343924 5.89870406 67.14255293 5.9375 62.875 C5.94652344 61.57304687 5.95554687 60.27109375 5.96484375 58.9296875 C5.97644531 57.96289062 5.98804688 56.99609375 6 56 C0.01683034 56.71429368 -5.30899012 58.05124526 -10 62 C-15.07122053 69.25388633 -18.19519398 77.70808726 -21.60302734 85.83105469 C-24.145509 91.59851569 -27.45287543 96.80255162 -31 102 C-34.49044225 101.37964303 -35.10839985 100.89160015 -37.8125 98.1875 C-40 95 -40 95 -39.77954102 93.09863281 C-38.89604842 90.7201479 -37.86144171 88.49854312 -36.71484375 86.234375 C-36.04291992 84.90019531 -36.04291992 84.90019531 -35.35742188 83.5390625 C-34.88884766 82.61867188 -34.42027344 81.69828125 -33.9375 80.75 C-33.46505859 79.81414062 -32.99261719 78.87828125 -32.50585938 77.9140625 C-31.34082522 75.60753024 -30.17209397 73.30295053 -29 71 C-31.37808946 71.56645479 -33.57339817 72.21190802 -35.875 73.0625 C-39.0896374 74.02689122 -41.66557386 74.1587822 -45 74 C-45.66 72.68 -46.32 71.36 -47 70 C-46.16597656 69.75765625 -45.33195313 69.5153125 -44.47265625 69.265625 C-42.78462891 68.76289063 -42.78462891 68.76289063 -41.0625 68.25 C-39.96035156 67.92515625 -38.85820313 67.6003125 -37.72265625 67.265625 C-36.49417969 66.84796875 -35.26570312 66.4303125 -34 66 C-33.28336685 65.79404709 -32.5667337 65.58809418 -31.8283844 65.37590027 C-28.23506185 64.12954716 -25.70866402 63.06522911 -23.55940247 59.83456421 C-22.34488703 57.04235264 -21.36289923 54.24607848 -20.4296875 51.34765625 C-20.05949493 50.2965416 -19.68930237 49.24542694 -19.30789185 48.16246033 C-18.13155388 44.80591284 -17.00138361 41.43610332 -15.875 38.0625 C-14.36721326 33.65204786 -12.84059333 29.24838854 -11.3046875 24.84765625 C-10.94115173 23.7982486 -10.57761597 22.74884094 -10.20306396 21.66763306 C-7.48782999 13.98140755 -4.30460543 6.92925972 0 0 Z " fill="#060606" transform="translate(1012,208)"/>
<path d="M0 0 C3.3125 1.8125 3.3125 1.8125 6 4 C6.928125 4.7425 6.928125 4.7425 7.875 5.5 C9 7 9 7 9 11 C6.61435923 10.42415568 4.33317216 9.77772405 2 9 C-7.113039 12.29386952 -13.72988773 17.29554038 -18 26 C-18 26.66 -18 27.32 -18 28 C-16.96101562 28.36351562 -15.92203125 28.72703125 -14.8515625 29.1015625 C-6.71568544 32.00918627 0.86623505 35.01725578 8 40 C8.59296875 40.40992188 9.1859375 40.81984375 9.796875 41.2421875 C13.62075907 44.13849573 16.5091541 47.42685306 18 52 C18.49627041 56.74400864 17.62238084 60.74510261 14.8125 64.625 C4.72588233 75.07619421 -12.209725 78.46955626 -26 80 C-27.06089844 80.12117188 -28.12179687 80.24234375 -29.21484375 80.3671875 C-34.90228325 80.72579024 -38.28380625 80.40801993 -42.75 76.6875 C-44.671875 74.82421875 -44.671875 74.82421875 -46 73 C-46 72.01 -46 71.02 -46 70 C-44.9584375 69.90203125 -43.916875 69.8040625 -42.84375 69.703125 C-26.86592703 68.08354793 -7.37950369 65.90058722 4.25 53.625 C6.12090564 50.81864154 7.09648838 48.23758331 8 45 C7.08734375 44.814375 7.08734375 44.814375 6.15625 44.625 C-0.06118518 43.16207408 -5.61512635 40.95258544 -11.3125 38.125 C-11.98152344 37.79757812 -12.65054688 37.47015625 -13.33984375 37.1328125 C-19.94315817 33.76538523 -25.49887035 29.73294164 -29 23 C-29.62436123 19.56601326 -29.76236371 17.33711447 -28 14.24609375 C-21.52845095 6.02796186 -10.88654458 -1.77173177 0 0 Z " fill="#070707" transform="translate(907,239)"/>
<path d="M0 0 C2.41796875 0.37109375 2.41796875 0.37109375 5 1 C6.3125 3.0625 6.3125 3.0625 7 5 C6.34 5 5.68 5 5 5 C4.73574219 5.84328857 4.47148438 6.68657715 4.19921875 7.55541992 C2.93713693 11.18056494 1.43045887 14.63807325 -0.1875 18.11328125 C-0.49067139 18.76830124 -0.79384277 19.42332123 -1.10620117 20.09819031 C-1.74324333 21.47128466 -2.38202271 22.84357425 -3.02246094 24.21508789 C-4.00375523 26.32055723 -4.97470383 28.43060288 -5.9453125 30.54101562 C-6.56708413 31.87789465 -7.18945856 33.21449353 -7.8125 34.55078125 C-8.10213623 35.18301102 -8.39177246 35.81524078 -8.69018555 36.46662903 C-10.77110144 40.88555072 -10.77110144 40.88555072 -13 42 C-14.65 40.68 -16.3 39.36 -18 38 C-17.38929051 34.12750684 -16.21746702 31.07140011 -14.453125 27.578125 C-13.9375 26.55203125 -13.421875 25.5259375 -12.890625 24.46875 C-12.34921875 23.4065625 -11.8078125 22.344375 -11.25 21.25 C-10.7240625 20.20328125 -10.198125 19.1565625 -9.65625 18.078125 C-6.57307915 11.97283618 -3.37919738 5.94663225 0 0 Z " fill="#080808" transform="translate(870,227)"/>
<path d="M0 0 C0.33 0 0.66 0 1 0 C1.33 6.93 1.66 13.86 2 21 C-3.94 23.475 -3.94 23.475 -10 26 C-9.23036421 22.15182105 -8.46186108 19.42652615 -6.93359375 15.91796875 C-6.53076172 14.98662109 -6.12792969 14.05527344 -5.71289062 13.09570312 C-5.29201172 12.13599609 -4.87113281 11.17628906 -4.4375 10.1875 C-4.01275391 9.20845703 -3.58800781 8.22941406 -3.15039062 7.22070312 C-2.10460494 4.81187093 -1.05435216 2.40509197 0 0 Z " fill="#F1F1F1" transform="translate(1015,237)"/>
<path d="M0 0 C1 3 1 3 0.171875 5.27734375 C-4.13447382 13.33400185 -9.6543186 19.53011487 -16 26 C-17 23 -17 23 -15.70703125 19.8203125 C-15.08586199 18.58329449 -14.45388227 17.35165952 -13.8125 16.125 C-13.50763672 15.51269531 -13.20277344 14.90039062 -12.88867188 14.26953125 C-9.58937265 7.80926819 -6.18458804 3.79508811 0 0 Z " fill="#EAEAEA" transform="translate(451,272)"/>
<path d="M0 0 C6.38196129 4.75518685 10.84703748 10.08145908 12.41015625 18.10546875 C12.65266076 23.3878497 10.88363682 28.15636247 9 33 C7.68 32.34 6.36 31.68 5 31 C5.875 23.375 5.875 23.375 7 20 C7.58929785 13.98916192 6.14593624 9.99446082 3 5 C0.64046906 2.64046906 -0.77895617 2.50858587 -4 2 C-2.68 1.34 -1.36 0.68 0 0 Z " fill="#191919" transform="translate(204,240)"/>
<path d="M0 0 C0.99 0.66 1.98 1.32 3 2 C1.70987794 5.87036618 0.17612353 6.4417845 -3.25 8.5625 C-4.20390625 9.16191406 -5.1578125 9.76132812 -6.140625 10.37890625 C-8.71817093 11.84021986 -11.22291433 12.98139741 -14 14 C-14 12.68 -14 11.36 -14 10 C-11.69921875 7.9296875 -11.69921875 7.9296875 -8.6875 5.875 C-7.70136719 5.19179688 -6.71523437 4.50859375 -5.69921875 3.8046875 C-3.80037026 2.53512454 -1.90054125 1.2670275 0 0 Z " fill="#8A1010" transform="translate(1170,376)"/>
<path d="M0 0 C0.33 0.66 0.66 1.32 1 2 C0.03821377 4.32979272 -0.9788695 6.51319692 -2.125 8.75 C-2.42148437 9.3584375 -2.71796875 9.966875 -3.0234375 10.59375 C-5.20362355 14.9171698 -7.788479 18.37731542 -11 22 C-12 19 -12 19 -10.7421875 16.07421875 C-10.12601563 14.95660156 -9.50984375 13.83898437 -8.875 12.6875 C-8.5545874 12.10589111 -8.2341748 11.52428223 -7.90405273 10.92504883 C-5.62050828 6.86915019 -3.18495929 3.37798713 0 0 Z " fill="#E8E8E8" transform="translate(745,279)"/>
<path d="M0 0 C0.33 0.66 0.66 1.32 1 2 C0.22265625 4.1640625 0.22265625 4.1640625 -0.9375 6.625 C-1.31777344 7.44226563 -1.69804688 8.25953125 -2.08984375 9.1015625 C-2.54037109 10.04128906 -2.54037109 10.04128906 -3 11 C-3.99 11 -4.98 11 -6 11 C-6 7.39426104 -5.18292538 6.58663434 -3 3.8125 C-2.443125 3.09707031 -1.88625 2.38164062 -1.3125 1.64453125 C-0.879375 1.10183594 -0.44625 0.55914062 0 0 Z " fill="#DBDBDB" transform="translate(745,279)"/>
</svg>
